<svg width="80" height="80" viewBox="0 0 80 80" fill="none" xmlns="http://www.w3.org/2000/svg">
<g clip-path="url(#clip0_2279_1098)">
<path d="M40.0093 3.33789V76.6712" stroke="black" stroke-width="6.66667" stroke-linecap="round" stroke-linejoin="round"/>
<path d="M56.6715 16.668H31.6715C28.5774 16.668 25.6099 17.8971 23.422 20.0851C21.234 22.273 20.0049 25.2404 20.0049 28.3346C20.0049 31.4288 21.234 34.3963 23.422 36.5842C25.6099 38.7721 28.5774 40.0013 31.6715 40.0013H48.3382C51.4324 40.0013 54.3999 41.2305 56.5878 43.4184C58.7757 45.6063 60.0049 48.5738 60.0049 51.668C60.0049 54.7622 58.7757 57.7296 56.5878 59.9176C54.3999 62.1055 51.4324 63.3346 48.3382 63.3346H20.0049" stroke="black" stroke-width="6.66667" stroke-linecap="round" stroke-linejoin="round"/>
</g>
<defs>
<clipPath id="clip0_2279_1098">
<rect width="80" height="80" fill="white"/>
</clipPath>
</defs>
</svg>
