<svg width="37" height="37" viewBox="0 0 37 37" fill="none" xmlns="http://www.w3.org/2000/svg">
<path fill-rule="evenodd" clip-rule="evenodd" d="M20.1577 0C20.5473 0 20.8632 0.315871 20.8632 0.705519V6.78379C20.8632 7.50561 21.8188 7.76166 22.1797 7.13655L25.2189 1.87258C25.4137 1.53514 25.8452 1.41952 26.1826 1.61434L29.1504 3.32775C29.4878 3.52257 29.6034 3.95406 29.4086 4.2915L26.3695 9.55535C26.0086 10.1805 26.7082 10.88 27.3333 10.5191L32.5971 7.48004C32.9345 7.28521 33.366 7.40083 33.5608 7.73828L35.2743 10.706C35.4691 11.0434 35.3535 11.4749 35.016 11.6697L29.7521 14.7089C29.127 15.0698 29.383 16.0254 30.1049 16.0254H36.1831C36.5727 16.0254 36.8886 16.3412 36.8886 16.7309V20.1577C36.8886 20.5473 36.5727 20.8632 36.1831 20.8632H30.1049C29.3831 20.8632 29.127 21.8188 29.7521 22.1797L35.016 25.2188C35.3535 25.4137 35.4691 25.8452 35.2743 26.1826L33.5608 29.1503C33.366 29.4877 32.9345 29.6034 32.5971 29.4085L27.3333 26.3695C26.7081 26.0086 26.0086 26.7081 26.3695 27.3332L29.4086 32.5971C29.6034 32.9345 29.4878 33.366 29.1503 33.5608L26.1826 35.2742C25.8452 35.469 25.4137 35.3534 25.2189 35.016L22.1797 29.752C21.8188 29.1269 20.8632 29.383 20.8632 30.1048V36.1831C20.8632 36.5727 20.5473 36.8886 20.1577 36.8886H16.7309C16.3412 36.8886 16.0254 36.5727 16.0254 36.1831V30.105C16.0254 29.3831 15.0698 29.1271 14.7089 29.7522L11.6698 35.016C11.475 35.3534 11.0435 35.469 10.7061 35.2742L7.73835 33.5608C7.40091 33.366 7.28529 32.9345 7.48011 32.597L10.5192 27.3331C10.8801 26.708 10.1806 26.0085 9.55547 26.3694L4.29155 29.4085C3.95411 29.6033 3.52262 29.4877 3.32779 29.1503L1.61439 26.1826C1.41956 25.8451 1.53518 25.4136 1.87263 25.2188L7.13646 22.1797C7.76158 21.8188 7.50552 20.8632 6.7837 20.8632H0.70552C0.315872 20.8632 0 20.5473 0 20.1577V16.7309C0 16.3412 0.315872 16.0254 0.705519 16.0254H6.78373C7.50554 16.0254 7.7616 15.0698 7.13649 14.7089L1.87263 11.6698C1.53518 11.4749 1.41956 11.0435 1.61439 10.706L3.32779 7.7383C3.52262 7.40086 3.95411 7.28524 4.29155 7.48006L9.55546 10.5192C10.1806 10.8801 10.8801 10.1805 10.5192 9.55543L7.4801 4.29153C7.28528 3.95408 7.40089 3.52259 7.73834 3.32777L10.706 1.61436C11.0435 1.41954 11.475 1.53516 11.6698 1.8726L14.7089 7.1364C15.0698 7.76151 16.0254 7.50545 16.0254 6.78363V0.70552C16.0254 0.315872 16.3412 0 16.7309 0H20.1577ZM18.4443 11.3891L24.8948 14.9167V23.5845H11.9938V14.9167L18.4443 11.3891Z" fill="#D6FEA1"/>
</svg>
