<svg width="216" height="37" viewBox="0 0 216 37" fill="none" xmlns="http://www.w3.org/2000/svg">
<path fill-rule="evenodd" clip-rule="evenodd" d="M20.1577 0C20.5473 0 20.8632 0.315871 20.8632 0.705519V6.78379C20.8632 7.50561 21.8188 7.76166 22.1797 7.13655L25.2189 1.87258C25.4137 1.53514 25.8452 1.41952 26.1826 1.61434L29.1504 3.32775C29.4878 3.52257 29.6034 3.95406 29.4086 4.2915L26.3695 9.55535C26.0086 10.1805 26.7082 10.88 27.3333 10.5191L32.5971 7.48004C32.9345 7.28521 33.366 7.40083 33.5608 7.73828L35.2743 10.706C35.4691 11.0434 35.3535 11.4749 35.016 11.6697L29.7521 14.7089C29.127 15.0698 29.383 16.0254 30.1049 16.0254H36.1831C36.5727 16.0254 36.8886 16.3412 36.8886 16.7309V20.1577C36.8886 20.5473 36.5727 20.8632 36.1831 20.8632H30.1049C29.3831 20.8632 29.127 21.8188 29.7521 22.1797L35.016 25.2188C35.3535 25.4137 35.4691 25.8452 35.2743 26.1826L33.5608 29.1503C33.366 29.4877 32.9345 29.6034 32.5971 29.4085L27.3333 26.3695C26.7081 26.0086 26.0086 26.7081 26.3695 27.3332L29.4086 32.5971C29.6034 32.9345 29.4878 33.366 29.1503 33.5608L26.1826 35.2742C25.8452 35.469 25.4137 35.3534 25.2189 35.016L22.1797 29.752C21.8188 29.1269 20.8632 29.383 20.8632 30.1048V36.1831C20.8632 36.5727 20.5473 36.8886 20.1577 36.8886H16.7309C16.3412 36.8886 16.0254 36.5727 16.0254 36.1831V30.105C16.0254 29.3831 15.0698 29.1271 14.7089 29.7522L11.6698 35.016C11.475 35.3534 11.0435 35.469 10.7061 35.2742L7.73835 33.5608C7.40091 33.366 7.28529 32.9345 7.48011 32.597L10.5192 27.3331C10.8801 26.708 10.1806 26.0085 9.55547 26.3694L4.29155 29.4085C3.95411 29.6033 3.52262 29.4877 3.32779 29.1503L1.61439 26.1826C1.41956 25.8451 1.53518 25.4136 1.87263 25.2188L7.13646 22.1797C7.76158 21.8188 7.50552 20.8632 6.7837 20.8632H0.70552C0.315872 20.8632 0 20.5473 0 20.1577V16.7309C0 16.3412 0.315872 16.0254 0.705519 16.0254H6.78373C7.50554 16.0254 7.7616 15.0698 7.13649 14.7089L1.87263 11.6698C1.53518 11.4749 1.41956 11.0435 1.61439 10.706L3.32779 7.7383C3.52262 7.40086 3.95411 7.28524 4.29155 7.48006L9.55546 10.5192C10.1806 10.8801 10.8801 10.1805 10.5192 9.55543L7.4801 4.29153C7.28528 3.95408 7.40089 3.52259 7.73834 3.32777L10.706 1.61436C11.0435 1.41954 11.475 1.53516 11.6698 1.8726L14.7089 7.1364C15.0698 7.76151 16.0254 7.50545 16.0254 6.78363V0.70552C16.0254 0.315872 16.3412 0 16.7309 0H20.1577ZM18.4443 11.3891L24.8948 14.9167V23.5845H11.9938V14.9167L18.4443 11.3891Z" fill="#D6FEA1"/>
<path d="M46.1108 29.368V5.43882H54.8983C56.5851 5.43882 57.9756 5.71229 59.0697 6.25924C60.1867 6.78341 61.0187 7.50128 61.5658 8.41287C62.1129 9.32445 62.3864 10.3614 62.3864 11.5237C62.3864 12.7543 62.1129 13.7798 61.5658 14.6003C61.0415 15.4207 60.3463 16.0474 59.4801 16.4804C58.6366 16.9134 57.7362 17.1755 56.7789 17.2667L57.3259 16.9248C58.3517 16.9476 59.2863 17.2325 60.1297 17.7794C60.9959 18.3036 61.6912 19.0101 62.2154 19.8989C62.7397 20.7649 63.0019 21.7448 63.0019 22.8387C63.0019 24.0466 62.6941 25.1519 62.0787 26.1546C61.486 27.1346 60.6084 27.9208 59.4459 28.5133C58.3061 29.0831 56.8928 29.368 55.206 29.368H46.1108ZM49.1882 26.8041H54.8641C56.4597 26.8041 57.6907 26.4395 58.5569 25.7102C59.4231 24.9582 59.8562 23.9212 59.8562 22.5994C59.8562 21.2776 59.4003 20.2293 58.4885 19.4545C57.5767 18.6796 56.3458 18.2922 54.7957 18.2922H49.1882V26.8041ZM49.1882 15.8651H54.6247C56.1064 15.8651 57.2462 15.5118 58.044 14.8054C58.8418 14.0989 59.2407 13.1303 59.2407 11.8997C59.2407 10.7146 58.8532 9.76885 58.0782 9.06237C57.3031 8.3331 56.1178 7.96847 54.5222 7.96847H49.1882V15.8651Z" fill="white"/>
<path d="M72.2228 29.7782C70.3765 29.7782 68.872 29.1629 67.7095 27.9322C66.5469 26.7016 65.9656 24.81 65.9656 22.2576V12.4125H69.043V21.9499C69.043 23.6819 69.3849 24.981 70.0687 25.847C70.7754 26.713 71.7442 27.146 72.9751 27.146C74.4112 27.146 75.5395 26.6332 76.3601 25.6077C77.1807 24.5593 77.591 23.0894 77.591 21.1979V12.4125H80.6684V29.368H77.591V26.6332C77.0896 27.6132 76.3715 28.388 75.4369 28.9577C74.5251 29.5047 73.4538 29.7782 72.2228 29.7782Z" fill="white"/>
<path d="M84.6718 29.368V12.4125H87.7491V29.368H84.6718ZM84.3299 9.16493V5.40463H88.0568V9.16493H84.3299Z" fill="white"/>
<path d="M91.8835 29.368V4.75513H94.9608V29.368H91.8835Z" fill="white"/>
<path d="M106.515 29.7782C104.828 29.7782 103.358 29.3908 102.104 28.6159C100.85 27.8411 99.8701 26.7813 99.1635 25.4367C98.4568 24.0922 98.1035 22.5652 98.1035 20.856C98.1035 19.1468 98.4568 17.6313 99.1635 16.3095C99.8701 14.9649 100.85 13.9166 102.104 13.1645C103.381 12.3897 104.851 12.0022 106.515 12.0022C107.905 12.0022 109.125 12.2871 110.173 12.8569C111.245 13.4038 112.065 14.1787 112.635 15.1814V4.75513H115.713V29.368H112.635V26.599C112.088 27.4194 111.313 28.1601 110.31 28.821C109.33 29.4591 108.065 29.7782 106.515 29.7782ZM106.925 27.1118C108.042 27.1118 109.022 26.8497 109.866 26.3255C110.709 25.8014 111.37 25.0721 111.849 24.1377C112.328 23.2034 112.567 22.1208 112.567 20.8902C112.567 19.6596 112.328 18.5771 111.849 17.6427C111.37 16.7083 110.709 15.979 109.866 15.4549C109.022 14.9307 108.042 14.6686 106.925 14.6686C105.831 14.6686 104.851 14.9307 103.985 15.4549C103.118 15.979 102.446 16.7083 101.967 17.6427C101.489 18.5543 101.249 19.6368 101.249 20.8902C101.249 22.1208 101.489 23.2034 101.967 24.1377C102.446 25.0721 103.118 25.8014 103.985 26.3255C104.851 26.8497 105.831 27.1118 106.925 27.1118Z" fill="white"/>
<path d="M119.972 29.368V5.43882H129.409C131.301 5.43882 132.839 5.75787 134.025 6.39598C135.233 7.0113 136.122 7.85452 136.692 8.92563C137.262 9.97396 137.547 11.1704 137.547 12.515C137.547 13.7229 137.284 14.8396 136.76 15.8651C136.236 16.8678 135.438 17.6883 134.367 18.3264C135.461 18.8733 136.247 19.6482 136.726 20.6509C137.227 21.6309 137.524 22.8045 137.615 24.1719L137.888 29.368H134.845L134.572 24.4454C134.503 23.3059 134.31 22.3829 133.991 21.6764C133.671 20.97 133.136 20.4572 132.383 20.1381C131.654 19.7963 130.628 19.6254 129.306 19.6254H123.049V29.368H119.972ZM123.049 17.1299H129.204C131.004 17.1299 132.315 16.7083 133.136 15.8651C133.979 14.9991 134.401 13.8824 134.401 12.515C134.401 11.1248 133.991 10.0309 133.17 9.23329C132.372 8.41287 131.05 8.00265 129.204 8.00265H123.049V17.1299Z" fill="white"/>
<path d="M148.488 29.7782C146.847 29.7782 145.388 29.4135 144.111 28.6843C142.858 27.9322 141.866 26.8953 141.137 25.5735C140.43 24.2517 140.077 22.702 140.077 20.9244C140.077 19.124 140.43 17.5629 141.137 16.2411C141.843 14.8965 142.835 13.8596 144.111 13.1303C145.388 12.3783 146.858 12.0022 148.522 12.0022C150.186 12.0022 151.611 12.3783 152.796 13.1303C154.004 13.8596 154.928 14.8282 155.566 16.036C156.227 17.2439 156.557 18.5657 156.557 20.0014C156.557 20.2293 156.557 20.48 156.557 20.7535C156.557 21.0042 156.546 21.2776 156.523 21.5739H142.368V19.3177H153.514C153.446 17.8364 152.933 16.6741 151.976 15.8309C151.041 14.9877 149.867 14.5661 148.454 14.5661C147.497 14.5661 146.608 14.7826 145.787 15.2156C144.966 15.6258 144.305 16.2525 143.804 17.0957C143.325 17.9162 143.086 18.9417 143.086 20.1723V21.0953C143.086 22.4399 143.336 23.568 143.838 24.4796C144.339 25.3912 145 26.0749 145.821 26.5306C146.642 26.9864 147.519 27.2143 148.454 27.2143C149.594 27.2143 150.551 26.9523 151.326 26.4281C152.101 25.9039 152.671 25.1861 153.036 24.2745H156.079C155.782 25.3 155.292 26.2344 154.609 27.0776C153.925 27.9208 153.058 28.5817 152.01 29.0603C150.984 29.5389 149.81 29.7782 148.488 29.7782Z" fill="white"/>
<path d="M165.135 29.7782C163.768 29.7782 162.617 29.5503 161.682 29.0945C160.747 28.6159 160.041 27.9892 159.562 27.2143C159.106 26.4167 158.878 25.5735 158.878 24.6847C158.878 22.8387 159.539 21.4372 160.861 20.48C162.206 19.5 163.962 19.0101 166.127 19.0101C167.084 19.0101 167.951 19.0784 168.726 19.2152C169.501 19.3519 170.139 19.5114 170.64 19.6937V18.9417C170.64 17.4832 170.253 16.3892 169.478 15.66C168.726 14.9079 167.711 14.5319 166.435 14.5319C165.386 14.5319 164.474 14.7484 163.699 15.1814C162.947 15.6144 162.48 16.3437 162.298 17.3692H159.22C159.357 16.1614 159.767 15.1586 160.451 14.361C161.158 13.5633 162.035 12.9708 163.084 12.5834C164.133 12.196 165.249 12.0022 166.435 12.0022C168.851 12.0022 170.663 12.6403 171.871 13.9166C173.102 15.17 173.718 16.845 173.718 18.9417V24.0352C173.718 24.8556 173.763 25.4595 173.855 25.847C173.969 26.2344 174.151 26.4737 174.402 26.5648C174.652 26.656 174.994 26.7016 175.427 26.7016H175.667V29.368H175.017C173.9 29.368 172.988 29.1856 172.282 28.821C171.575 28.4564 171.096 27.7271 170.846 26.6332C170.321 27.522 169.592 28.2741 168.657 28.8894C167.746 29.4819 166.572 29.7782 165.135 29.7782ZM165.614 27.2827C166.617 27.2827 167.472 27.032 168.179 26.5306C168.908 26.0293 169.478 25.3684 169.888 24.5479C170.299 23.7275 170.526 22.8615 170.572 21.9499C170.048 21.7904 169.41 21.6537 168.657 21.5397C167.905 21.403 167.153 21.3346 166.401 21.3346C164.851 21.3346 163.722 21.6423 163.016 22.2576C162.332 22.8501 161.99 23.6022 161.99 24.5138C161.99 25.3114 162.298 25.9723 162.913 26.4965C163.551 27.0206 164.452 27.2827 165.614 27.2827Z" fill="white"/>
<path d="M185.952 29.7782C184.265 29.7782 182.795 29.3908 181.541 28.6159C180.287 27.8411 179.307 26.7813 178.601 25.4367C177.894 24.0922 177.541 22.5652 177.541 20.856C177.541 19.1468 177.894 17.6313 178.601 16.3095C179.307 14.9649 180.287 13.9166 181.541 13.1645C182.818 12.3897 184.288 12.0022 185.952 12.0022C187.342 12.0022 188.562 12.2871 189.611 12.8569C190.682 13.4038 191.503 14.1787 192.072 15.1814V4.75513H195.15V29.368H192.072V26.599C191.525 27.4194 190.75 28.1601 189.747 28.821C188.767 29.4591 187.502 29.7782 185.952 29.7782ZM186.362 27.1118C187.479 27.1118 188.459 26.8497 189.303 26.3255C190.146 25.8014 190.807 25.0721 191.286 24.1377C191.765 23.2034 192.004 22.1208 192.004 20.8902C192.004 19.6596 191.765 18.5771 191.286 17.6427C190.807 16.7083 190.146 15.979 189.303 15.4549C188.459 14.9307 187.479 14.6686 186.362 14.6686C185.268 14.6686 184.288 14.9307 183.422 15.4549C182.556 15.979 181.883 16.7083 181.404 17.6427C180.926 18.5543 180.686 19.6368 180.686 20.8902C180.686 22.1208 180.926 23.2034 181.404 24.1377C181.883 25.0721 182.556 25.8014 183.422 26.3255C184.288 26.8497 185.268 27.1118 186.362 27.1118Z" fill="white"/>
<path d="M198.288 36.8885V34.3589H201.742C202.061 34.3589 202.323 34.3019 202.528 34.188C202.756 34.0968 202.973 33.8803 203.178 33.5385C203.383 33.1966 203.634 32.6839 203.93 32.0002L205.845 27.7955L205.571 29.4021L198.152 12.4125H201.468L206.973 25.4367L212.786 12.4125H216L206.802 32.8206C206.392 33.7322 206.039 34.4615 205.742 35.0084C205.446 35.5554 205.161 35.9542 204.888 36.2049C204.637 36.4783 204.341 36.6607 203.999 36.7518C203.679 36.843 203.258 36.8885 202.733 36.8885H198.288Z" fill="white"/>
</svg>
