<svg width="80" height="80" viewBox="0 0 80 80" fill="none" xmlns="http://www.w3.org/2000/svg">
<g clip-path="url(#clip0_2279_1091)">
<path d="M70.0073 33.332C70.0073 56.6654 40.0073 76.6654 40.0073 76.6654C40.0073 76.6654 10.0073 56.6654 10.0073 33.332C10.0073 25.3755 13.168 17.7449 18.7941 12.1188C24.4202 6.49274 32.0508 3.33203 40.0073 3.33203C47.9638 3.33203 55.5944 6.49274 61.2205 12.1188C66.8466 17.7449 70.0073 25.3755 70.0073 33.332Z" stroke="black" stroke-width="6.66667" stroke-linecap="round" stroke-linejoin="round"/>
<path d="M40.0024 43.3379C45.5253 43.3379 50.0024 38.8607 50.0024 33.3379C50.0024 27.815 45.5253 23.3379 40.0024 23.3379C34.4796 23.3379 30.0024 27.815 30.0024 33.3379C30.0024 38.8607 34.4796 43.3379 40.0024 43.3379Z" stroke="black" stroke-width="6.66667" stroke-linecap="round" stroke-linejoin="round"/>
</g>
<defs>
<clipPath id="clip0_2279_1091">
<rect width="80" height="80" fill="white"/>
</clipPath>
</defs>
</svg>
