<svg width="10" height="10" viewBox="0 0 10 10" fill="none" xmlns="http://www.w3.org/2000/svg">
<path d="M6.66669 1.66669H7.50002C7.72103 1.66669 7.933 1.75448 8.08928 1.91076C8.24556 2.06704 8.33335 2.27901 8.33335 2.50002V8.33335C8.33335 8.55437 8.24556 8.76633 8.08928 8.92261C7.933 9.07889 7.72103 9.16669 7.50002 9.16669H2.50002C2.27901 9.16669 2.06704 9.07889 1.91076 8.92261C1.75448 8.76633 1.66669 8.55437 1.66669 8.33335V2.50002C1.66669 2.27901 1.75448 2.06704 1.91076 1.91076C2.06704 1.75448 2.27901 1.66669 2.50002 1.66669H3.33335" stroke="white" stroke-width="0.833333" stroke-linecap="round" stroke-linejoin="round"/>
<path d="M6.24998 0.833313H3.74998C3.51986 0.833313 3.33331 1.01986 3.33331 1.24998V2.08331C3.33331 2.31343 3.51986 2.49998 3.74998 2.49998H6.24998C6.4801 2.49998 6.66665 2.31343 6.66665 2.08331V1.24998C6.66665 1.01986 6.4801 0.833313 6.24998 0.833313Z" stroke="white" stroke-width="0.833333" stroke-linecap="round" stroke-linejoin="round"/>
</svg>
