<svg width="10" height="10" viewBox="0 0 10 10" fill="none" xmlns="http://www.w3.org/2000/svg">
<g clip-path="url(#clip0_453_22327)">
<path d="M8.33333 3.75H4.58333C4.1231 3.75 3.75 4.1231 3.75 4.58333V8.33333C3.75 8.79357 4.1231 9.16667 4.58333 9.16667H8.33333C8.79357 9.16667 9.16667 8.79357 9.16667 8.33333V4.58333C9.16667 4.1231 8.79357 3.75 8.33333 3.75Z" stroke="black" stroke-width="0.833333" stroke-linecap="round" stroke-linejoin="round"/>
<path d="M2.08337 6.24998H1.66671C1.44569 6.24998 1.23373 6.16218 1.07745 6.0059C0.921171 5.84962 0.833374 5.63766 0.833374 5.41665V1.66665C0.833374 1.44563 0.921171 1.23367 1.07745 1.07739C1.23373 0.92111 1.44569 0.833313 1.66671 0.833313H5.41671C5.63772 0.833313 5.84968 0.92111 6.00596 1.07739C6.16224 1.23367 6.25004 1.44563 6.25004 1.66665V2.08331" stroke="black" stroke-width="0.833333" stroke-linecap="round" stroke-linejoin="round"/>
</g>
<defs>
<clipPath id="clip0_453_22327">
<rect width="10" height="10" fill="white"/>
</clipPath>
</defs>
</svg>
