<svg width="11" height="10" viewBox="0 0 11 10" fill="none" xmlns="http://www.w3.org/2000/svg">
<g clip-path="url(#clip0_453_22306)">
<path d="M5.08337 1.66669H2.16671C1.94569 1.66669 1.73373 1.75448 1.57745 1.91076C1.42117 2.06704 1.33337 2.27901 1.33337 2.50002V8.33335C1.33337 8.55437 1.42117 8.76633 1.57745 8.92261C1.73373 9.07889 1.94569 9.16669 2.16671 9.16669H8.00004C8.22105 9.16669 8.43302 9.07889 8.5893 8.92261C8.74558 8.76633 8.83337 8.55437 8.83337 8.33335V5.41669" stroke="black" stroke-width="0.833333" stroke-linecap="round" stroke-linejoin="round"/>
<path d="M8.20837 1.04166C8.37413 0.875899 8.59895 0.782776 8.83337 0.782776C9.06779 0.782776 9.29261 0.875899 9.45837 1.04166C9.62413 1.20742 9.71726 1.43224 9.71726 1.66666C9.71726 1.90108 9.62413 2.1259 9.45837 2.29166L5.50004 6.24999L3.83337 6.66666L4.25004 4.99999L8.20837 1.04166Z" stroke="black" stroke-width="0.833333" stroke-linecap="round" stroke-linejoin="round"/>
</g>
<defs>
<clipPath id="clip0_453_22306">
<rect width="10" height="10" fill="white" transform="translate(0.5)"/>
</clipPath>
</defs>
</svg>
