<svg width="16" height="17" viewBox="0 0 16 17" fill="none" xmlns="http://www.w3.org/2000/svg">
<path d="M6.86001 3.26903L1.21335 12.6957C1.09693 12.8973 1.03533 13.1259 1.03467 13.3587C1.03402 13.5915 1.09434 13.8204 1.20963 14.0227C1.32492 14.225 1.49116 14.3935 1.69182 14.5116C1.89247 14.6297 2.12055 14.6931 2.35335 14.6957H13.6467C13.8795 14.6931 14.1076 14.6297 14.3082 14.5116C14.5089 14.3935 14.6751 14.225 14.7904 14.0227C14.9057 13.8204 14.966 13.5915 14.9654 13.3587C14.9647 13.1259 14.9031 12.8973 14.7867 12.6957L9.14001 3.26903C9.02117 3.0731 8.85383 2.91111 8.65414 2.79868C8.45446 2.68626 8.22917 2.6272 8.00001 2.6272C7.77086 2.6272 7.54557 2.68626 7.34588 2.79868C7.1462 2.91111 6.97886 3.0731 6.86001 3.26903Z" stroke="black" stroke-width="1.33333" stroke-linecap="round" stroke-linejoin="round"/>
<path d="M8 6.69568V9.36235" stroke="black" stroke-width="1.33333" stroke-linecap="round" stroke-linejoin="round"/>
<path d="M8 12.0291H8.00667" stroke="black" stroke-width="1.33333" stroke-linecap="round" stroke-linejoin="round"/>
</svg>
