<svg width="37" height="36" viewBox="0 0 37 36" fill="none" xmlns="http://www.w3.org/2000/svg">
<g opacity="0.5">
<g opacity="0.5">
<path d="M2 3.77778V14.4444H12.4795" fill="#1E252E"/>
<path d="M2 14.4444C2 14.4444 5.50188 9.58794 8.34681 6.69021C11.1918 3.79248 15.1232 2 19.4659 2C28.1474 2 35.1852 9.16344 35.1852 18C35.1852 26.8366 28.1474 34 19.4659 34C12.2995 34 6.25314 29.1187 4.36098 22.4444M2 14.4444V3.77778M2 14.4444H12.4795" stroke="#1E252E" stroke-width="2.66667" stroke-linecap="round" stroke-linejoin="round"/>
</g>
<path opacity="0.5" d="M15.648 15.9093V14.2133H18.6027V22H16.704V15.9093H15.648ZM25.3331 15.8027H22.0051V17.2747C22.1473 17.1182 22.3464 16.9902 22.6024 16.8907C22.8584 16.7911 23.1358 16.7413 23.4344 16.7413C23.9678 16.7413 24.4087 16.8622 24.7571 17.104C25.1127 17.3458 25.3722 17.6587 25.5358 18.0427C25.6993 18.4267 25.7811 18.8427 25.7811 19.2907C25.7811 20.1227 25.5464 20.784 25.0771 21.2747C24.6078 21.7582 23.9464 22 23.0931 22C22.5242 22 22.03 21.904 21.6104 21.712C21.1909 21.5129 20.8673 21.2391 20.6398 20.8907C20.4122 20.5422 20.2878 20.1404 20.2664 19.6853H22.0478C22.0904 19.9058 22.1936 20.0907 22.3571 20.24C22.5207 20.3822 22.7447 20.4533 23.0291 20.4533C23.3633 20.4533 23.6122 20.3467 23.7758 20.1333C23.9393 19.92 24.0211 19.6356 24.0211 19.28C24.0211 18.9316 23.9358 18.6649 23.7651 18.48C23.5944 18.2951 23.3456 18.2027 23.0184 18.2027C22.7767 18.2027 22.5776 18.2631 22.4211 18.384C22.2647 18.4978 22.1616 18.6507 22.1118 18.8427H20.3518V14.2027H25.3331V15.8027Z" fill="#1E252E"/>
</g>
</svg>
