<svg width="37" height="36" viewBox="0 0 37 36" fill="none" xmlns="http://www.w3.org/2000/svg">
<g opacity="0.5">
<path opacity="0.5" d="M8.31418 16.4107C8.34263 15.6498 8.59152 15.0631 9.06085 14.6507C9.53018 14.2382 10.1666 14.032 10.9702 14.032C11.5035 14.032 11.9586 14.1244 12.3355 14.3093C12.7195 14.4942 13.0075 14.7467 13.1995 15.0667C13.3986 15.3867 13.4982 15.7458 13.4982 16.144C13.4982 16.6133 13.3808 16.9973 13.1462 17.296C12.9115 17.5876 12.6377 17.7867 12.3248 17.8933V17.936C12.7302 18.0711 13.0502 18.2951 13.2848 18.608C13.5195 18.9209 13.6368 19.3227 13.6368 19.8133C13.6368 20.2542 13.5337 20.6453 13.3275 20.9867C13.1284 21.3209 12.8333 21.584 12.4422 21.776C12.0582 21.968 11.5995 22.064 11.0662 22.064C10.2128 22.064 9.53018 21.8542 9.01818 21.4347C8.51329 21.0151 8.24663 20.3822 8.21818 19.536H9.98885C9.99596 19.8489 10.0848 20.0978 10.2555 20.2827C10.4262 20.4604 10.6751 20.5493 11.0022 20.5493C11.2795 20.5493 11.4928 20.4711 11.6422 20.3147C11.7986 20.1511 11.8768 19.9378 11.8768 19.6747C11.8768 19.3333 11.7666 19.088 11.5462 18.9387C11.3328 18.7822 10.988 18.704 10.5115 18.704H10.1702V17.2213H10.5115C10.8742 17.2213 11.1657 17.1609 11.3862 17.04C11.6137 16.912 11.7275 16.688 11.7275 16.368C11.7275 16.112 11.6564 15.9129 11.5142 15.7707C11.372 15.6284 11.1764 15.5573 10.9275 15.5573C10.6573 15.5573 10.4546 15.6391 10.3195 15.8027C10.1915 15.9662 10.1168 16.1689 10.0955 16.4107H8.31418ZM14.7085 18C14.7085 16.7769 14.9432 15.8133 15.4125 15.1093C15.889 14.4053 16.6534 14.0533 17.7058 14.0533C18.7583 14.0533 19.5192 14.4053 19.9885 15.1093C20.465 15.8133 20.7032 16.7769 20.7032 18C20.7032 19.2373 20.465 20.208 19.9885 20.912C19.5192 21.616 18.7583 21.968 17.7058 21.968C16.6534 21.968 15.889 21.616 15.4125 20.912C14.9432 20.208 14.7085 19.2373 14.7085 18ZM18.9112 18C18.9112 17.2818 18.833 16.7307 18.6765 16.3467C18.5201 15.9556 18.1965 15.76 17.7058 15.76C17.2152 15.76 16.8916 15.9556 16.7352 16.3467C16.5787 16.7307 16.5005 17.2818 16.5005 18C16.5005 18.4836 16.529 18.8853 16.5858 19.2053C16.6427 19.5182 16.7565 19.7742 16.9272 19.9733C17.105 20.1653 17.3645 20.2613 17.7058 20.2613C18.0472 20.2613 18.3032 20.1653 18.4738 19.9733C18.6516 19.7742 18.769 19.5182 18.8258 19.2053C18.8827 18.8853 18.9112 18.4836 18.9112 18Z" fill="#1E252E"/>
<g opacity="0.5">
<path d="M35.3333 3.77778V14.4444H24.807" fill="#1E252E"/>
<path d="M35.3333 14.4444C35.3333 14.4444 31.8158 9.58794 28.9582 6.69021C26.1005 3.79248 22.1516 2 17.7895 2C9.06919 2 2 9.16344 2 18C2 26.8366 9.06919 34 17.7895 34C24.9879 34 31.0612 29.1187 32.9618 22.4444M35.3333 14.4444V3.77778M35.3333 14.4444H24.807" stroke="#1E252E" stroke-width="2.66667" stroke-linecap="round" stroke-linejoin="round"/>
</g>
</g>
</svg>
