<svg width="147" height="32" viewBox="0 0 147 32" fill="none" xmlns="http://www.w3.org/2000/svg">
<path d="M29.4981 13.1891V22.2017C29.4981 22.9459 29.6561 23.4714 29.9722 23.7782C30.2882 24.0851 30.8376 24.2376 31.6185 24.2376H33.4872V26.3855H31.1996C29.7866 26.3855 28.7264 26.0603 28.019 25.4099C27.3116 24.7594 26.9588 23.69 26.9588 22.2017V13.1891H24.978V11.0963H26.9588V7.24501H29.4981V11.0963H33.4872V13.1891H29.4981Z" fill="#014751"/>
<path d="M40.1387 11.5428C40.9656 11.0595 41.9762 10.817 43.1668 10.817V13.439H42.4962C39.65 13.439 38.2278 14.9825 38.2278 18.0712V26.3855H35.6885V11.0963H38.2278V13.5787C38.6743 12.7059 39.3119 12.0279 40.1387 11.5428Z" fill="#014751"/>
<path d="M58.9412 11.0963V26.3856H56.4019V24.1255C55.9186 24.9064 55.2443 25.5164 54.3789 25.9537C53.5134 26.3911 52.5598 26.6097 51.5198 26.6097C50.3292 26.6097 49.2598 26.3635 48.3117 25.8711C47.3636 25.3786 46.6139 24.64 46.0663 23.6533C45.5169 22.6684 45.2432 21.4686 45.2432 20.0538V11.0981H47.7549V19.7193C47.7549 21.226 48.1353 22.3836 48.8997 23.1921C49.6622 24.0006 50.704 24.4066 52.0251 24.4066C53.383 24.4066 54.4524 23.9877 55.2333 23.1517C56.0142 22.3138 56.4056 21.0974 56.4056 19.497V11.0981H58.9412V11.0963Z" fill="#014751"/>
<path d="M76.5567 19.6899H64.3359C64.4278 21.1966 64.9441 22.3726 65.8849 23.2196C66.8238 24.0667 67.963 24.4893 69.3025 24.4893C70.3994 24.4893 71.3163 24.2339 72.0513 23.7213C72.7862 23.2104 73.3026 22.5269 73.6002 21.6707H76.3343C75.9246 23.1406 75.1069 24.335 73.8795 25.2555C72.6521 26.1761 71.127 26.6373 69.3043 26.6373C67.8527 26.6373 66.5555 26.312 65.4126 25.6616C64.2679 25.0111 63.3712 24.0851 62.7208 22.8852C62.0703 21.6854 61.7451 20.2944 61.7451 18.7143C61.7451 17.1341 62.0612 15.7468 62.6932 14.5561C63.3253 13.3655 64.2146 12.4504 65.3575 11.8073C66.5022 11.1661 67.8178 10.8445 69.3062 10.8445C70.7577 10.8445 72.0403 11.1606 73.1574 11.7926C74.2727 12.4247 75.1326 13.2957 75.739 14.4018C76.3435 15.5079 76.6467 16.7592 76.6467 18.1538C76.6412 18.6389 76.6136 19.1516 76.5567 19.6899ZM73.3761 15.1276C72.9479 14.4294 72.3673 13.9002 71.6323 13.5364C70.8974 13.1744 70.0834 12.9925 69.1904 12.9925C67.9079 12.9925 66.8146 13.4022 65.9124 14.2199C65.0102 15.0394 64.4939 16.1731 64.3635 17.6246H74.0173C74.0192 16.6582 73.8042 15.8258 73.3761 15.1276Z" fill="#014751"/>
<path d="M84.599 24.0428L89.3415 11.0963H92.048L86.0488 26.3856H83.0905L77.0913 11.0963H79.8254L84.599 24.0428Z" fill="#014751"/>
<path d="M96.1454 25.6616C94.9823 25.0111 94.0709 24.085 93.4113 22.8852C92.7516 21.6854 92.4209 20.2944 92.4209 18.7142C92.4209 17.1524 92.7608 15.7707 93.4388 14.5708C94.1169 13.371 95.0429 12.4504 96.2152 11.8092C97.3875 11.1679 98.6976 10.8464 100.149 10.8464C101.601 10.8464 102.911 11.1679 104.083 11.8092C105.255 12.4504 106.18 13.3673 106.859 14.558C107.537 15.7486 107.877 17.134 107.877 18.7161C107.877 20.2981 107.528 21.6872 106.832 22.887C106.134 24.0869 105.189 25.013 104 25.6634C102.81 26.3139 101.489 26.6391 100.039 26.6391C98.6057 26.6372 97.3085 26.312 96.1454 25.6616ZM102.606 23.7635C103.405 23.3354 104.052 22.6941 104.544 21.8379C105.037 20.9816 105.283 19.9398 105.283 18.7124C105.283 17.485 105.04 16.4432 104.557 15.5869C104.074 14.7325 103.442 14.0949 102.659 13.676C101.878 13.2571 101.031 13.0476 100.12 13.0476C99.19 13.0476 98.3393 13.2571 97.5675 13.676C96.7958 14.0949 96.1766 14.7325 95.7117 15.5869C95.2469 16.4432 95.0135 17.485 95.0135 18.7124C95.0135 19.9582 95.2413 21.0092 95.697 21.8654C96.1527 22.7217 96.7609 23.3574 97.5253 23.7764C98.2878 24.1953 99.1238 24.4048 100.037 24.4048C100.948 24.4048 101.805 24.1916 102.606 23.7635Z" fill="#014751"/>
<path d="M110.646 8.11228C110.312 7.77787 110.145 7.36812 110.145 6.88488C110.145 6.40163 110.312 5.99189 110.646 5.65747C110.981 5.32306 111.391 5.15585 111.874 5.15585C112.339 5.15585 112.734 5.32306 113.059 5.65747C113.384 5.99189 113.548 6.40163 113.548 6.88488C113.548 7.36812 113.384 7.77787 113.059 8.11228C112.734 8.4467 112.339 8.6139 111.874 8.6139C111.391 8.6139 110.981 8.4467 110.646 8.11228ZM113.101 11.0963V26.3855H110.562V11.0963H113.101Z" fill="#014751"/>
<path d="M116.776 14.5708C117.408 13.3894 118.286 12.4743 119.413 11.822C120.537 11.1716 121.825 10.8464 123.277 10.8464C125.155 10.8464 126.704 11.3021 127.922 12.2134C129.14 13.1248 129.945 14.3889 130.335 16.0077H127.6C127.34 15.078 126.832 14.343 126.079 13.8028C125.326 13.2644 124.39 12.9943 123.275 12.9943C121.824 12.9943 120.653 13.4923 119.76 14.4863C118.867 15.4822 118.421 16.8915 118.421 18.7142C118.421 20.5554 118.867 21.9794 119.76 22.9826C120.653 23.9877 121.825 24.4893 123.275 24.4893C124.39 24.4893 125.32 24.2284 126.064 23.7084C126.808 23.1884 127.319 22.4442 127.599 21.4759H130.333C129.923 23.0377 129.105 24.289 127.878 25.2279C126.65 26.1669 125.116 26.6372 123.275 26.6372C121.824 26.6372 120.536 26.312 119.411 25.6616C118.285 25.0111 117.406 24.0906 116.774 22.8999C116.142 21.7093 115.826 20.3147 115.826 18.7142C115.826 17.1322 116.142 15.7523 116.776 14.5708Z" fill="#014751"/>
<path d="M146.91 19.6899H134.689C134.781 21.1966 135.297 22.3726 136.238 23.2196C137.177 24.0667 138.316 24.4893 139.656 24.4893C140.753 24.4893 141.67 24.2339 142.405 23.7213C143.14 23.2104 143.656 22.5269 143.953 21.6707H146.688C146.278 23.1406 145.46 24.335 144.233 25.2555C143.005 26.1761 141.48 26.6373 139.658 26.6373C138.206 26.6373 136.909 26.312 135.766 25.6616C134.621 25.0111 133.725 24.0851 133.074 22.8852C132.424 21.6854 132.098 20.2944 132.098 18.7143C132.098 17.1341 132.414 15.7468 133.046 14.5561C133.679 13.3655 134.568 12.4504 135.711 11.8073C136.855 11.1661 138.171 10.8445 139.659 10.8445C141.111 10.8445 142.394 11.1606 143.511 11.7926C144.626 12.4247 145.488 13.2957 146.092 14.4018C146.697 15.5079 147 16.7592 147 18.1538C146.994 18.6389 146.967 19.1516 146.91 19.6899ZM143.729 15.1276C143.301 14.4294 142.721 13.9002 141.986 13.5364C141.251 13.1744 140.437 12.9925 139.544 12.9925C138.261 12.9925 137.168 13.4022 136.266 14.2199C135.363 15.0394 134.847 16.1731 134.717 17.6246H144.371C144.372 16.6582 144.157 15.8258 143.729 15.1276Z" fill="#014751"/>
<path d="M10.4366 0C4.68177 0 0 4.68178 0 10.4366V21.3546C0 27.1095 4.68177 31.7912 10.4366 31.7912C16.1914 31.7912 20.8732 27.1095 20.8732 21.3546V10.4366C20.8714 4.68178 16.1896 0 10.4366 0ZM2.21226 10.4366C2.21226 5.90183 5.90183 2.21227 10.4366 2.21227C14.9714 2.21227 18.6609 5.90183 18.6609 10.4366V21.3546C18.6609 22.8632 18.2512 24.278 17.5383 25.4944C13.3581 22.3138 7.51692 22.3138 3.33677 25.4944C2.62385 24.278 2.2141 22.8632 2.2141 21.3546V10.4366H2.21226ZM4.70015 27.2381C8.08286 24.6822 12.7922 24.6822 16.1731 27.2381C14.6903 28.6841 12.6654 29.5771 10.4366 29.5771C8.2078 29.5771 6.18296 28.6841 4.70015 27.2381Z" fill="#014751"/>
<path d="M10.4366 20.8971C13.7514 20.8971 16.4487 18.1998 16.4487 14.885C16.4487 11.5703 13.7514 8.87296 10.4366 8.87296C7.1219 8.87296 4.42456 11.5703 4.42456 14.885C4.42456 18.1998 7.1219 20.8971 10.4366 20.8971ZM10.4366 10.9327C12.6158 10.9327 14.3889 12.7058 14.3889 14.885C14.3889 17.0642 12.6158 18.8374 10.4366 18.8374C8.25744 18.8374 6.48431 17.0642 6.48431 14.885C6.48248 12.7058 8.2556 10.9327 10.4366 10.9327Z" fill="#014751"/>
</svg>
